<svg data-v-423bf9ae="" xmlns="http://www.w3.org/2000/svg" viewBox="0 0 515 90" class="iconLeft"><!----><!----><!----><g data-v-423bf9ae="" id="1c0768a0-0665-4bc7-81a8-ae4b5a634dbb" fill="black" transform="matrix(4.850444668964377,0,0,4.850444668964377,107.28374498840759,-1.5885206610805724)"><path d="M7.50 15.79L8.92 14.34L7.97 13.36C8.15 13.06 8.25 12.67 8.25 12.19L8.25 5.36C8.25 4.06 7.60 3.42 6.33 3.42L2.48 3.42C1.20 3.42 0.56 4.06 0.56 5.36L0.56 12.19C0.56 13.44 1.20 14.06 2.48 14.06L5.73 14.06ZM5.84 10.96C5.84 11.24 5.70 11.38 5.42 11.38L3.40 11.38C3.12 11.38 2.98 11.24 2.98 10.96L2.98 6.51C2.98 6.23 3.12 6.09 3.40 6.09L5.42 6.09C5.70 6.09 5.84 6.23 5.84 6.51ZM14.29 11.52C14.29 11.70 14.20 11.80 14.01 11.80L11.97 11.80C11.79 11.80 11.69 11.70 11.69 11.52L11.69 10.95C11.69 10.77 11.79 10.67 11.97 10.67L14.01 10.67C14.20 10.67 14.29 10.77 14.29 10.95ZM14.83 14.06C16.09 14.06 16.72 13.41 16.72 12.12L16.72 7.77C16.72 6.48 16.06 5.84 14.76 5.84L9.60 5.84L9.60 8.13L13.87 8.13C14.15 8.13 14.29 8.27 14.29 8.55L14.29 9.17C14.17 9.11 14.01 9.07 13.83 9.07L11.07 9.07C9.88 9.07 9.28 9.70 9.28 10.98L9.28 12.19C9.28 13.44 9.88 14.06 11.07 14.06ZM21.24 14.06C22.51 14.06 23.16 13.44 23.16 12.19L23.16 3.42L20.73 3.42L20.73 10.96C20.73 11.24 20.59 11.38 20.31 11.38L17.54 11.38L17.54 14.06ZM29.78 14.06C31.02 14.06 31.65 13.41 31.65 12.14L31.65 5.84L29.26 5.84L29.26 11.21C29.26 11.49 29.12 11.63 28.84 11.63L27.20 11.63C26.92 11.63 26.78 11.48 26.78 11.19L26.78 5.84L24.36 5.84L24.36 12.19C24.36 13.44 25.02 14.06 26.32 14.06ZM40.21 14.06L40.21 7.78C40.21 6.48 39.58 5.84 38.30 5.84L34.76 5.84C33.49 5.84 32.84 6.48 32.84 7.77L32.84 14.06L35.27 14.06L35.27 8.69C35.27 8.41 35.41 8.27 35.69 8.27L37.39 8.27C37.67 8.27 37.81 8.41 37.81 8.69L37.81 14.06ZM46.40 8.95C46.40 9.13 46.30 9.23 46.12 9.23L44.07 9.23C43.89 9.23 43.79 9.13 43.79 8.95L43.79 8.37C43.79 8.19 43.89 8.09 44.07 8.09L46.12 8.09C46.30 8.09 46.40 8.19 46.40 8.37ZM48.45 14.06L48.45 11.76L44.21 11.76C43.93 11.76 43.79 11.62 43.79 11.34L43.79 10.72C43.92 10.79 44.07 10.82 44.23 10.82L47.01 10.82C48.20 10.82 48.80 10.19 48.80 8.92L48.80 7.71C48.80 6.47 48.20 5.84 47.01 5.84L43.26 5.84C42.00 5.84 41.37 6.48 41.37 7.77L41.37 12.12C41.37 13.41 42.03 14.06 43.33 14.06ZM57.55 14.06L57.55 11.38L52.26 11.38L52.26 10.50C52.26 10.12 52.44 9.94 52.81 9.94L55.59 9.94C56.90 9.94 57.55 9.32 57.55 8.08L57.55 5.45C57.55 4.09 56.92 3.42 55.65 3.42L50.05 3.42L50.05 6.09L54.57 6.09C54.95 6.09 55.13 6.29 55.13 6.65L55.13 6.96C55.13 7.34 54.95 7.52 54.57 7.52L51.73 7.52C50.48 7.52 49.87 8.15 49.87 9.39L49.87 14.06ZM63.95 10.96C63.95 11.24 63.81 11.38 63.53 11.38L61.52 11.38C61.24 11.38 61.10 11.24 61.10 10.96L61.10 6.51C61.10 6.23 61.24 6.09 61.52 6.09L63.53 6.09C63.81 6.09 63.95 6.23 63.95 6.51ZM64.44 14.06C65.73 14.06 66.36 13.44 66.36 12.19L66.36 5.36C66.36 4.06 65.72 3.42 64.44 3.42L60.59 3.42C59.32 3.42 58.67 4.06 58.67 5.36L58.67 12.19C58.67 13.44 59.32 14.06 60.59 14.06ZM75.17 14.06L75.17 11.38L69.87 11.38L69.87 10.50C69.87 10.12 70.06 9.94 70.42 9.94L73.21 9.94C74.51 9.94 75.17 9.32 75.17 8.08L75.17 5.45C75.17 4.09 74.54 3.42 73.26 3.42L67.66 3.42L67.66 6.09L72.18 6.09C72.56 6.09 72.74 6.29 72.74 6.65L72.74 6.96C72.74 7.34 72.56 7.52 72.18 7.52L69.34 7.52C68.10 7.52 67.48 8.15 67.48 9.39L67.48 14.06ZM80.60 9.11L79.00 9.11L80.60 5.87ZM82.99 14.06L82.99 11.52L83.90 11.52L83.90 9.11L82.99 9.11L82.99 3.42L79.21 3.42L76.05 9.74L76.05 11.52L80.60 11.52L80.60 14.06Z"></path></g><!----><g data-v-423bf9ae="" id="188930bc-91e0-4499-a9af-b98abdaa84ca" transform="matrix(2.8125,0,0,2.8125,0,0)" stroke="none" fill="black"><path d="M16 1c8.271 0 15 6.729 15 15s-6.729 15-15 15S1 24.271 1 16 7.729 1 16 1m0-1C7.163 0 0 7.163 0 16s7.163 16 16 16 16-7.163 16-16S24.837 0 16 0z"></path><path d="M16 7.045L24.955 16 16 24.955 7.045 16 16 7.045m0-1.414L5.631 16 16 26.369 26.369 16 16 5.631z"></path></g><!----></svg>